<?xml version="1.0" encoding="UTF-8"?>
<svg version="1.1" xmlns="http://www.w3.org/2000/svg" width="72" height="72">
<path d="M0 0 C23.76 0 47.52 0 72 0 C72 23.76 72 47.52 72 72 C48.24 72 24.48 72 0 72 C0 48.24 0 24.48 0 0 Z " fill="#FCFCFC" transform="translate(0,0)"/>
<path d="M0 0 C2.60444348 -0.05394705 5.20776998 -0.09364469 7.8125 -0.125 C8.55048828 -0.14175781 9.28847656 -0.15851562 10.04882812 -0.17578125 C13.91246426 -0.21074628 15.70903668 -0.19397555 19 2 C19.35245276 5.44290693 19.43643292 8.77925765 19.43945312 12.234375 C19.4630889 14.63126593 19.4630889 14.63126593 20 18 C21.89881258 19.59656868 21.89881258 19.59656868 24 20 C24 20.99 24 21.98 24 23 C22.68 23.33 21.36 23.66 20 24 C19.95101562 25.04800781 19.90203125 26.09601562 19.8515625 27.17578125 C19.77651857 28.55471354 19.70097143 29.9336185 19.625 31.3125 C19.57859375 32.34793945 19.57859375 32.34793945 19.53125 33.40429688 C19.31875081 37.06990789 19.08066139 38.87900792 17 42 C13.57767028 43.14077657 10.91326783 43.09815117 7.3125 43.0625 C5.54326172 43.04896484 5.54326172 43.04896484 3.73828125 43.03515625 C2.83464844 43.02355469 1.93101563 43.01195312 1 43 C0.4375 41.0625 0.4375 41.0625 0 39 C1 38 1 38 3.94140625 37.90234375 C5.13636719 37.91394531 6.33132812 37.92554688 7.5625 37.9375 C9.35880859 37.95103516 9.35880859 37.95103516 11.19140625 37.96484375 C12.11824219 37.97644531 13.04507813 37.98804688 14 38 C13.96519531 36.66195312 13.96519531 36.66195312 13.9296875 35.296875 C13.90261719 33.54117188 13.90261719 33.54117188 13.875 31.75 C13.85179687 30.58984375 13.82859375 29.4296875 13.8046875 28.234375 C14 25 14 25 15.1328125 22.828125 C15.41898438 22.22484375 15.70515625 21.6215625 16 21 C15.36110439 19.65313898 14.6893902 18.32172742 14 17 C13.73737459 12.65092324 13.91276702 8.36164914 14 4 C9.38 4 4.76 4 0 4 C0 2.68 0 1.36 0 0 Z " fill="#181818" transform="translate(43,20)"/>
<path d="M0 0 C0.74958984 0.01804687 1.49917969 0.03609375 2.27148438 0.0546875 C4.1190371 0.10175891 5.96593159 0.17350234 7.8125 0.25 C7.8125 1.57 7.8125 2.89 7.8125 4.25 C3.1925 4.25 -1.4275 4.25 -6.1875 4.25 C-6.166875 6.4775 -6.14625 8.705 -6.125 11 C-6.08809605 14.98562683 -6.1909715 18.40752974 -7.1875 22.25 C-6.8575 22.91 -6.5275 23.57 -6.1875 24.25 C-6.04753931 28.91908861 -6.14502715 33.57798622 -6.1875 38.25 C-1.5675 38.25 3.0525 38.25 7.8125 38.25 C7.8125 39.57 7.8125 40.89 7.8125 42.25 C5.95145086 44.11104914 2.99213923 43.46673452 0.5 43.5 C-0.65113281 43.52578125 -1.80226563 43.5515625 -2.98828125 43.578125 C-6.1875 43.25 -6.1875 43.25 -8.55859375 42.27734375 C-11.16357007 39.03517897 -10.86451023 35.60679661 -10.9375 31.5625 C-10.96714844 30.76521484 -10.99679688 29.96792969 -11.02734375 29.14648438 C-11.09794082 27.18153251 -11.14499708 25.21576023 -11.1875 23.25 C-12.5075 22.92 -13.8275 22.59 -15.1875 22.25 C-14.6925 20.765 -14.6925 20.765 -14.1875 19.25 C-13.1975 19.25 -12.2075 19.25 -11.1875 19.25 C-11.22230469 18.21359375 -11.25710938 17.1771875 -11.29296875 16.109375 C-11.32111482 14.73959958 -11.34841411 13.36980659 -11.375 12 C-11.41270508 10.97712891 -11.41270508 10.97712891 -11.45117188 9.93359375 C-11.49449341 6.9588481 -11.30867738 4.54915667 -10.1875 1.78125 C-7.05401938 -0.6178211 -3.76573119 -0.17102011 0 0 Z " fill="#141414" transform="translate(19.1875,19.75)"/>
<path d="M0 0 C2.5 -0.3125 2.5 -0.3125 5 0 C7 2 7 2 7.3125 4.5 C7.1578125 5.7375 7.1578125 5.7375 7 7 C4 9 4 9 1.3125 8.625 C0.549375 8.41875 -0.21375 8.2125 -1 8 C-1.625 5.6875 -1.625 5.6875 -2 3 C-1.34 2.01 -0.68 1.02 0 0 Z " fill="#101010" transform="translate(22,37)"/>
<path d="M0 0 C3.125 0.375 3.125 0.375 6 1 C6.33 2.65 6.66 4.3 7 6 C5.25 7.5625 5.25 7.5625 3 9 C0.83031791 8.75203633 -0.44233607 8.55766393 -2 7 C-2.1875 4.5625 -2.1875 4.5625 -2 2 C-1.34 1.34 -0.68 0.68 0 0 Z " fill="#101010" transform="translate(45,37)"/>
<path d="M0 0 C1.32 0.33 2.64 0.66 4 1 C4 4.3 4 7.6 4 11 C2.68 10.67 1.36 10.34 0 10 C0 6.7 0 3.4 0 0 Z " fill="#1B1B1B" transform="translate(37,7)"/>
<path d="M0 0 C1.32 0 2.64 0 4 0 C4 3.3 4 6.6 4 10 C2.68 10 1.36 10 0 10 C0 6.7 0 3.4 0 0 Z " fill="#121212" transform="translate(30,7)"/>
</svg>
